<svg width="31" height="32" viewBox="0 0 31 32" fill="none" xmlns="http://www.w3.org/2000/svg">
<path d="M17.9219 0H29.5469C30.3494 0 31 0.7675 31 1.71429V13.1429C31 14.0896 30.3494 14.8571 29.5469 14.8571H17.9219C17.1193 14.8571 16.4688 14.0896 16.4688 13.1429V1.71429C16.4688 0.7675 17.1193 0 17.9219 0ZM13.0781 0H1.45312C0.650576 0 0 0.7675 0 1.71429V13.1429C0 14.0896 0.650576 14.8571 1.45312 14.8571H13.0781C13.8807 14.8571 14.5312 14.0896 14.5312 13.1429V1.71429C14.5312 0.7675 13.8807 0 13.0781 0ZM0 18.8571V30.2857C0 31.2325 0.650576 32 1.45312 32H13.0781C13.8807 32 14.5312 31.2325 14.5312 30.2857V18.8571C14.5312 17.9104 13.8807 17.1429 13.0781 17.1429H1.45312C0.650576 17.1429 0 17.9104 0 18.8571ZM17.9219 32H29.5469C30.3494 32 31 31.2325 31 30.2857V18.8571C31 17.9104 30.3494 17.1429 29.5469 17.1429H17.9219C17.1193 17.1429 16.4688 17.9104 16.4688 18.8571V30.2857C16.4688 31.2325 17.1193 32 17.9219 32Z" fill="#FEE0C0"/>
</svg>
