<svg width="49" height="40" viewBox="0 0 49 40" fill="none" xmlns="http://www.w3.org/2000/svg">
<path d="M23.8504 10.3771L8.16731 23.9366V38.5713C8.16731 38.9502 8.3107 39.3136 8.56594 39.5815C8.82118 39.8495 9.16736 40 9.52832 40L19.0605 39.9741C19.4202 39.9722 19.7647 39.8209 20.0184 39.5531C20.2722 39.2854 20.4147 38.9231 20.4147 38.5454V29.9989C20.4147 29.62 20.5581 29.2566 20.8133 28.9886C21.0685 28.7207 21.4147 28.5702 21.7757 28.5702H27.2197C27.5807 28.5702 27.9268 28.7207 28.1821 28.9886C28.4373 29.2566 28.5807 29.62 28.5807 29.9989V38.5391C28.5801 38.7271 28.6149 38.9134 28.6831 39.0872C28.7512 39.2611 28.8514 39.4191 28.9778 39.5523C29.1043 39.6854 29.2545 39.7911 29.4199 39.8631C29.5853 39.9352 29.7626 39.9723 29.9417 39.9723L39.4705 40C39.8314 40 40.1776 39.8495 40.4328 39.5815C40.6881 39.3136 40.8315 38.9502 40.8315 38.5713V23.9268L25.1518 10.3771C24.9675 10.2211 24.7378 10.136 24.5011 10.136C24.2643 10.136 24.0347 10.2211 23.8504 10.3771ZM48.6232 19.5933L41.512 13.4399V1.07155C41.512 0.787356 41.4044 0.514804 41.213 0.313849C41.0216 0.112895 40.7619 0 40.4912 0H35.7277C35.457 0 35.1973 0.112895 35.0059 0.313849C34.8145 0.514804 34.7069 0.787356 34.7069 1.07155V7.55531L27.0913 0.977788C26.3604 0.346449 25.4433 0.00126206 24.4968 0.00126206C23.5503 0.00126206 22.6333 0.346449 21.9024 0.977788L0.370448 19.5933C0.267086 19.6829 0.18157 19.7931 0.118787 19.9175C0.0560036 20.0419 0.0171834 20.1781 0.00454419 20.3182C-0.00809497 20.4584 0.00569467 20.5997 0.0451252 20.7343C0.0845557 20.8688 0.148854 20.9939 0.234347 21.1024L2.40345 23.8705C2.48871 23.9794 2.59358 24.0695 2.71206 24.1357C2.83053 24.2019 2.96029 24.243 3.0939 24.2565C3.22751 24.27 3.36234 24.2557 3.49069 24.2145C3.61904 24.1732 3.73837 24.1058 3.84186 24.0161L23.8504 6.71593C24.0347 6.55995 24.2643 6.47489 24.5011 6.47489C24.7378 6.47489 24.9675 6.55995 25.1518 6.71593L45.1612 24.0161C45.2645 24.1058 45.3836 24.1733 45.5118 24.2147C45.64 24.2561 45.7746 24.2706 45.9081 24.2573C46.0416 24.244 46.1713 24.2033 46.2898 24.1374C46.4083 24.0715 46.5133 23.9817 46.5987 23.8732L48.7678 21.105C48.8532 20.996 48.9173 20.8702 48.9562 20.7351C48.9952 20.6 49.0083 20.4581 48.9949 20.3176C48.9815 20.1771 48.9417 20.0408 48.8779 19.9165C48.8141 19.7922 48.7276 19.6823 48.6232 19.5933Z" fill="#DCD5D5"/>
</svg>
