<svg width="35" height="22" viewBox="0 0 35 22" fill="none" xmlns="http://www.w3.org/2000/svg">
<path d="M35 10.9792C35.0178 17.0399 27.1546 21.9957 17.5127 22C13.3483 22.0019 9.52317 21.0894 6.51719 19.5644C5.73555 19.1679 5.67712 18.4316 6.38742 17.9851L7.18247 17.4853C7.78996 17.1035 8.7598 17.0617 9.43285 17.3973C11.6475 18.502 14.4503 19.1613 17.5 19.1613C24.6767 19.1613 30.4838 15.5104 30.4838 11C30.4838 6.4889 24.6756 2.83872 17.5 2.83872C14.0555 2.83872 10.927 3.68008 8.60407 5.05344L12.1855 7.30464C12.8968 7.75173 12.393 8.51615 11.3872 8.51615H1.12903C0.505453 8.51615 0 8.19843 0 7.80647V1.35846C0 0.726223 1.21611 0.409573 1.9274 0.856627L5.41131 3.04652C8.55305 1.15926 12.8111 0 17.5 0C27.1539 0 34.9821 4.91364 35 10.9792ZM22.234 14.4737L22.9272 13.9135C23.5014 13.4494 23.3684 12.7806 22.6301 12.4196L19.758 11.0155V6.38711C19.758 5.79918 18.9998 5.32259 18.0645 5.32259H16.9355C16.0001 5.32259 15.2419 5.79918 15.2419 6.38711V12.4039L19.8575 14.6604C20.5958 15.0213 21.6598 14.9378 22.234 14.4737Z" fill="#FEE0C0"/>
</svg>
