<svg width="28" height="26" viewBox="0 0 28 26" fill="none" xmlns="http://www.w3.org/2000/svg">
<path d="M27.6192 22.4787L22.1665 17.4163C21.9204 17.1878 21.5867 17.0608 21.2367 17.0608H20.3452C21.8547 15.2684 22.7517 13.014 22.7517 10.5615C22.7517 4.72727 17.6599 0 11.3758 0C5.09178 0 0 4.72727 0 10.5615C0 16.3957 5.09178 21.1229 11.3758 21.1229C14.0174 21.1229 16.4457 20.2902 18.3763 18.8888V19.7164C18.3763 20.0414 18.5131 20.3511 18.7592 20.5796L24.2119 25.642C24.726 26.1193 25.5573 26.1193 26.066 25.642L27.6137 24.2051C28.1278 23.7278 28.1278 22.956 27.6192 22.4787ZM11.3758 17.0608C7.50914 17.0608 4.37532 14.1564 4.37532 10.5615C4.37532 6.97158 7.50367 4.0621 11.3758 4.0621C15.2425 4.0621 18.3763 6.96651 18.3763 10.5615C18.3763 14.1514 15.248 17.0608 11.3758 17.0608Z" fill="#FEE0C0"/>
</svg>
